<svg xmlns="http://www.w3.org/2000/svg" xmlns:xlink="http://www.w3.org/1999/xlink" preserveAspectRatio="xMidYMid" width="26" height="26" viewBox="0 0 26 26">
  <defs>
    <style>
      .cls-1 {
        fill: #fff;
        filter: url(#color-overlay-1);
        fill-rule: evenodd;
      }
    </style>

    <filter id="color-overlay-1" filterUnits="userSpaceOnUse">
      <feFlood flood-color="#fff"/>
      <feComposite operator="in" in2="SourceGraphic"/>
      <feBlend in2="SourceGraphic" result="solidFill"/>
    </filter>
  </defs>
  <path d="M13.011,25.993 C5.831,25.993 0.011,20.173 0.011,12.993 C0.011,5.814 5.831,-0.007 13.011,-0.007 C20.190,-0.007 26.011,5.814 26.011,12.993 C26.011,20.173 20.190,25.993 13.011,25.993 ZM9.936,12.109 C9.936,12.285 9.904,12.722 9.940,12.985 L11.245,11.414 C11.515,11.118 11.828,10.911 11.987,10.967 C12.147,11.023 12.234,11.211 12.182,11.386 L10.022,18.540 C9.774,19.377 10.244,20.198 11.390,20.385 C13.070,20.385 14.068,19.249 15.049,17.777 C15.049,17.601 15.108,17.137 15.072,16.874 L13.767,18.445 C13.496,18.741 13.160,18.948 13.000,18.892 C12.853,18.840 12.767,18.676 12.796,18.513 L14.971,11.324 C15.152,10.411 14.661,9.581 13.621,9.474 C12.528,9.474 10.917,10.637 9.936,12.109 ZM14.758,5.457 C13.932,5.457 13.262,6.058 13.262,6.944 C13.262,7.831 13.932,8.432 14.758,8.432 C15.584,8.432 16.254,7.831 16.254,6.944 C16.254,6.058 15.584,5.457 14.758,5.457 Z" class="cls-1"/>
</svg>
