<svg xmlns="http://www.w3.org/2000/svg" xmlns:xlink="http://www.w3.org/1999/xlink" preserveAspectRatio="xMidYMid" width="19.187" height="24.32" viewBox="0 0 19.187 24.32">
  <defs>
    <style>
      .cls-1 {
        fill: #fff;
        filter: url(#color-overlay-1);
        fill-rule: evenodd;
      }
    </style>

    <filter id="color-overlay-1" filterUnits="userSpaceOnUse">
      <feFlood flood-color="#fff"/>
      <feComposite operator="in" in2="SourceGraphic"/>
      <feBlend in2="SourceGraphic" result="solidFill"/>
    </filter>
  </defs>
  <path d="M18.923,5.999 L15.423,12.060 C14.871,13.017 13.648,13.345 12.691,12.793 L11.825,12.293 L12.825,10.561 L12.825,10.561 C13.303,10.837 13.915,10.673 14.191,10.194 L16.691,5.864 C16.967,5.386 16.803,4.775 16.325,4.499 L12.861,2.498 C12.383,2.222 11.771,2.386 11.495,2.864 L8.995,7.194 C8.719,7.673 8.883,8.284 9.361,8.561 L8.361,10.293 L7.495,9.793 C6.538,9.240 6.211,8.017 6.763,7.061 L10.263,0.998 C10.815,0.042 12.038,-0.286 12.995,0.266 L18.191,3.266 C19.148,3.819 19.475,5.042 18.923,5.999 ZM7.093,16.489 C6.615,16.213 6.451,15.601 6.727,15.123 L10.727,8.194 C11.003,7.716 11.615,7.552 12.093,7.828 C12.571,8.105 12.735,8.716 12.459,9.194 L8.459,16.123 C8.183,16.601 7.571,16.765 7.093,16.489 ZM6.361,13.757 L6.361,13.757 C5.883,13.481 5.271,13.645 4.995,14.123 L2.495,18.453 C2.219,18.931 2.383,19.543 2.861,19.819 L6.325,21.819 C6.803,22.095 7.415,21.931 7.691,21.453 L10.191,17.123 C10.467,16.645 10.303,16.033 9.825,15.757 L9.825,15.757 L10.825,14.025 L11.691,14.524 C12.648,15.077 12.975,16.300 12.423,17.257 L8.923,23.319 C8.371,24.276 7.148,24.603 6.191,24.051 L0.995,21.051 C0.038,20.499 -0.289,19.276 0.263,18.319 L3.763,12.257 C4.315,11.300 5.538,10.972 6.495,11.525 L7.361,12.025 L6.361,13.757 Z" class="cls-1"/>
</svg>
